<svg id="Layer_1" data-name="Layer 1" xmlns="http://www.w3.org/2000/svg" viewBox="0 0 150 100"><defs><style>.cls-1{fill:#292626;}.cls-2,.cls-3{fill:#fff;}.cls-2{fill-rule:evenodd;}</style></defs><g id="g2196"><rect id="rect6125" class="cls-1" x="53.51" y="26" width="43.94" height="48.19"/><path id="path2220" class="cls-2" d="M59.81,43.5H69.88l2.2,2.44L70,48.22H59.81l-2.17-2.28Z"/><path id="path3196" class="cls-2" d="M56.89,46.81l3,3.18v7.95l-3,3.3-1.33-1.45V48.22Z"/><path id="path3198" class="cls-2" d="M60.63,58.81h8.54L72,62.11l-1.26,1.38H58.94l-1.3-1.42Z"/><path id="path3200" class="cls-2" d="M57.68,29.73l1.26-1.41H70.66L72,29.77l-2.83,3.15H60.59Z"/><path id="path3202" class="cls-2" d="M72.87,30.64l1.26,1.41V43.54L72.83,45l-2.91-3.11v-8Z"/><path id="path5144" class="cls-2" d="M78.34,62.07l1.37,1.57H91.32l1.34-1.49-2.88-3.27H81.25Z"/><path id="path5146" class="cls-2" d="M93.48,61.17c.28-.2,1.34-1.34,1.34-1.34V48.18l-1.4-1.39L90.53,50v8Z"/><path id="path5148" class="cls-2" d="M93.44,45l1.42-1.38V32.09L93.48,30.6l-3,3.22v8.07Z"/><path id="path5150" class="cls-2" d="M92.69,29.81l-1.33-1.53H79.71l-1.39,1.39,2.93,3.25h8.53Z"/><path id="path5152" class="cls-2" d="M77.55,30.56,76.21,31.9V43.58L77.55,45l3-3.19v-8Z"/><path id="path5154" class="cls-2" d="M77.55,61.17l3-3.15V50l-3-3.26-1.3,1.49V59.75Z"/><path id="flowRoot2179" class="cls-3" d="M55.4,71.59l-.14-.31.15-.27.09.1.09-.06.22-.18.18,0h.14l.09-.14,0,0,.07-.13v-.72l0-.21,0-.36V69l-.12-.16.08-.32.1-.21-.06,0,0-.17-.17-.19L56,68l-.31-.19v0l-.06,0h-.08l0-.15,0,0,.34-.32.22,0,.09.09.05-.06.09.09h.12l.36.19.08.12.06-.05.07.09.27-.16,0-.15.05.06.22-.19h.16l.06,0,.08.09.14-.06.44.5h.08l.08-.1.19,0,.22-.12v-.09l.39-.14.22,0,.36.13.22.09,0,0,.12.08.06.36.1.09-.1.79-.13.47.13.37v1l.1.26.25,0,0,0v0l.22.09,0,.22-.13.26-.22.09-.28-.06h-.6l-.75,0-.06.09v-.06l-.29,0h-.14l-.08.09-.63-.09,0,.09-.22-.09-.09-.19,0-.16.14-.05.14-.08,0,0,.14-.13.12-.09,0,0h0l.1-.19-.1-.22,0-.13.09-.1-.06,0,.1-.18-.17-.31.17-.39,0-.05,0,0-.1-.13v-.28l0,0,.25-.28v-.07l0,0,0,0-.09-.09L58,68.19l-.21-.06-.26-.08,0,0-.06,0-.26.14-.17.22,0,.29h-.1l-.12.31.09.54v1.1l.07.12v.1l0,0,.23,0,.18.17-.1.27v.16l-.62.06-.22,0H56v-.1Zm4.09-3.4-.07-.14-.31-.14L59,68v.14l0,.17h-.1l0,0-.12.12h0l-.19.35V69l-.12.26.22.31,0,0v.06l-.09.39v.14l-.13.26.26.31,0,0v.14l0,0v0l.13,0,.22,0,.09.18h0l.15-.09h.16l.19-.09v0l0-.13,0-.4.18-.22V70l-.09-.57.17-.35L59.7,69l0,0,.1-.35-.1-.14-.08-.22,0,0h0Zm3.15-1,0,0v0l.38,0,.41.05h.09l0,0,.09-.09.35.05.18.35v1l0,.4v.31l-.08.17,0,.66,0,.22.1.28v0l.09.09.22,0,.26,0h.62l.26,0,.12.22,0,.15v0l.1.09-.07.17-.08.17-.23.1-.43,0v0l-.17-.1-.19,0h-.6l0,.06-.09-.1-.23.1h-.38l-.27.12-.14-.08-.08-.1,0,.06-.76-.06v0l0,0,0,0-.23,0-.13-.06-.09-.25.05-.31.23-.14h.25l.13-.09.63,0h.47v-.29l-.07-.15h-.09l0-.08h.05l0,.05.14-.22,0,0,.09-.67,0-.17,0-.79h0l.09-.41v0l-.13-.12-.13,0-.28.26L63,68l-.14-.13h-.26l-.09.09h-.22l-.17-.21,0-.07,0,0L62,67.49l0-.32h.12v-.09Zm1.6-1.45.13.32,0,.38-.29.22h-.06l0,0-.07,0h-.38l-.31,0,0-.5V66l0,0,0-.05v0l.07,0,.12-.21h0l.13-.13,0,0h0l.05,0,.22-.09Zm4,1.45h.1v.08l.18.16h.17l.05.07h.1v.12h.38l.28-.22h.12l0,0,.27-.17.14,0,.08.08h.09l0,0v0l.21.08,0,0h.08l.32.24h.08l.36.54h-.06v.27l.06.26.12.26v.1l-.18.21.06,1.89.21.15,0-.06.26.53-.17.1,0,0-.15-.14H71l-.06,0-.57.06-.08-.1H69.9l-.09-.12,0-.35,0,0,0,0,.17-.06.72,0,.07-.09,0,0h0l.07-.1,0,0-.14-.44,0-.25.13-.14-.13-.17.06-.14v-.09l-.1,0,0-.31.06-.36-.15-.21v-.22l-.38-.31-.14,0H70l-.13.12-.31.17h-.16l-.1.18,0,0-.26.41v.12l0,0H69l-.08.14,0,.12,0,0-.26.6,0,.22,0,.19.05.25-.12.1v.17l.12.23.67,0,.09-.09,0,.06h.09l-.18.09-.09.35-.26.26-.21-.1-.14.06-.12,0v0h-.81l0-.06H67.7l-.09.1-.13-.1-.22.06,0,0v0l-.14-.09L67,71.53l0,0h0v-.22h0l.09-.21.13-.13h.25l.28-.13.13,0,0-.14.09-.17v-.14l0,0,.14-.15-.1-.13,0,0v-.58l0,0,0-.12v-.88l0-.06.09-.08V68.3l-.26,0-.12,0v-.14l-.45-.29,0-.19,0-.19.26-.24.4.12,0,0v0l.22,0,.22-.17h0l0-.14Zm5.11.21h.23l-.06.06.19.09.09.07,0,.05.08.17-.12.45v1.62l0,.72.27.16,0,0v0l.12.07.19,0,.17-.1,0,.07h.12l.41-.41.22-.26,0-.37.18-.07v-.18h0l.14-.26,0-.28.09-.08v-.26l0-.31.22-.23-.22-.22-.8,0-.17-.09,0-.31.35-.14.53,0,.17.1.12,0h.28l.13.13v1.32l.09,1.1,0,0v.16l.09.4v0l.22.09H77l.1.12.09.1h.22l.09.09h.12l0,.13v.35l0,0v.07h0l0,.1h-.23l0,0h-.13l-.05,0-.17.09h-.15v0l-.38-.06-.22-.1H75.8v-.07l-.14-.15-.48.06v0l-.19.09h0l0,0-.19.13-.56.13-.06,0-.34-.26h-.23v-.09l-.17,0H73.2l0-.06-.07-.07-.06-.62L73,70.3l.09-.18V68.48L73,68.27,73,68l-.1-.14-.24,0-.12.07-.15-.06-.15-.26v-.19l.09-.21.15-.07.12,0,.22-.05,0,.06.13.15,0,0,0,0,0,0,0,0,0,.06,0-.09ZM80.3,65.5l0,0h.14l.08.12v.17l.14.09h0l-.21.44.12.35-.12.28.12.12h.84l.26,0V67l.09.09h.22l.22.19,0,.29,0,.05v.1l-.17.07-.15,0h-.44l0,0-.57,0-.14.12v.22l-.17.09-.1.1.13.38v.41l.22.21-.13.1-.12.13v.09l.17.09h.17l0,0,0,0-.17.4.08.14.09.09h.19l.12-.54-.09-.09.06-.22h.07V70l.09.07h.1l.12-.23h.1l.34-.38.35.09h.05l0,.22v.47l0,0v.14h-.05l0,.07-.18.19.05,0H82.1L82,71v0l-.19.09v.13l-.09.09,0,0-.36.06-.13.09-.09.17h-.07l-.06.06L81,71.56l-.53.06-.09.1-.17-.19,0-.19-.35-.21-.13-.39h0l0-.06v-.12l.12-.13L79.68,70l.09-.5,0-.76,0-.43v-.45l-.13-.07-.22,0-.22,0h-.43l-.1.09-.18-.12,0,0-.09-.07h-.09l0-.06,0,0v-.4l.27-.22.09.06h.14l0-.09.44,0,.22.14.22-.14V65.71l0-.13.23-.13Zm6.41,1.88.62.1.08.09h.13v.08l.06,0h.13l.08.22.26.22v.14l.19.36.12.13,0,0,.1.14-.05,0v.13h0l0,.18v0l0,0,0,.22H88v0l-.09,0h-.13l-.06,0-.26.18-.31-.22-.44.13-.09.13,0,0h-.09v-.12l-.14-.1-.57.06-.27.09-.13,0,0,0-.12.13.12.22-.09.09.13.17,0,0,.17.31.27.13v0l.45.19.12.13h.26v0l.05.05.23-.13h.34l.14-.09.12-.28.22-.12L88,70.3l.16,0,.18.21,0,.22-.19.23-.09.18-.25.18-.13.17-.53.09-.14.13h-.22l-.09.09-.12,0-.15-.1-.61-.06-.31-.22v-.07l0,0h-.1v-.09l-.12-.08-.06,0,0-.23-.23-.16-.13-.22,0-.31,0-.5-.18-.26v-.17l.13,0,.09-.18v-.35h0l.17-.36v-.09l.28-.22.34-.16V67.6l.22-.12,0,0,.13-.15.09.1.09-.14Zm-.62,1.86.32-.17.09,0,.12.13.09-.09h.08l.09-.14.05.06h.23l0-.71L87,68.05l0-.14-.05.1h0L86.79,68v0l-.25,0-.09.09,0,0V68h-.09l0,0v0h-.19L86,68l0,.18-.09.08v0l0,.21a1.38,1.38,0,0,1-.14.23l-.12.09-.06,0,.1.22.08,0v0h.14Zm5-2.07h.09v.08l.19.16h.17l0,.07h.09v.12h.38l.28-.22h.13l0,0,.27-.17.13,0,.09.08h.08l.05,0v0l.22.08,0,0h.08l.33.24h.08l.35.54h0v.27l0,.26.13.26v.1l-.18.21,0,1.89.22.15,0-.06.27.53-.18.1,0,0-.14-.14h-.6l-.07,0-.57.06-.08-.1h-.35l-.1-.12.06-.35,0,0,0,0L93,71l.71,0,.07-.09,0,0h0l.07-.1,0,0-.13-.44,0-.25.12-.14-.12-.17.05-.14v-.09l-.09,0,0-.31.05-.36-.14-.21v-.22l-.39-.31L93,68h-.15l-.12.12-.31.17h-.17l-.09.18,0,0-.26.41v.12l0,0h-.1l-.08.14,0,.12,0,0-.26.6,0,.22,0,.19,0,.25-.13.1v.17l.13.23.66,0,.09-.09,0,.06h.1l-.19.09-.08.35L92,71.7l-.22-.1-.13.06-.13,0v0h-.81l0-.06h-.08l-.09.1-.14-.1-.22.06,0,0v0l-.13-.09-.15-.13,0,0h0v-.22h0l.09-.21L90,71h.25l.28-.13.12,0,0-.14.1-.17v-.14l0,0,.13-.15-.09-.13,0,0v-.58l0,0,0-.12v-.88l-.06-.06.1-.08V68.3l-.26,0-.13,0v-.14l-.44-.29,0-.19,0-.19.26-.24.41.12,0,0v0l.22,0,.21-.17H91l0-.14Z"/></g></svg>