<svg id="Layer_1" data-name="Layer 1" xmlns="http://www.w3.org/2000/svg" viewBox="0 0 150 100"><defs><style>.cls-1{fill:#292626;fill-rule:evenodd;}</style></defs><path id="Shape" class="cls-1" d="M52.2,44.18h1.94V47a4,4,0,0,1,3.69-3h.74v2h-.65c-2.58,0-3.69,1.75-3.69,4.71v6H52.29L52.2,44.18Z"/><path id="Shape-2" data-name="Shape" class="cls-1" d="M64.75,45.57c-2.31,0-4.06,1.48-4.06,4.52,0,2.86,1.2,4.8,4,4.8,1.94,0,4.15-1.47,4.15-4.89a4.05,4.05,0,0,0-4.06-4.43Zm4.16-1.39h1.93V55.54C70.84,59.42,69,62,64.38,62c-3,0-5.07-1.48-5.35-4.06h2.12c.19,1,.83,2.4,3.23,2.4,3.6,0,4.53-2.4,4.53-5.26v-1a4.83,4.83,0,0,1-4.53,2.77c-3.69,0-5.72-2.77-5.72-6.46,0-3.88,2.68-6.46,6-6.46a5,5,0,0,1,4.25,2.49h0V44.18Z"/><path id="Shape-3" data-name="Shape" class="cls-1" d="M73,44.18h1.94V56.74H73V44.18Zm1-6.09a1.48,1.48,0,1,1-1.47,1.48A1.46,1.46,0,0,1,74,38.09Z"/><path id="Shape-4" data-name="Shape" class="cls-1" d="M110.26,57.38c-2.49,0-6.74-1.29-6.74-9.78,0-4.62,1.85-9.6,7-9.6a4.92,4.92,0,0,1,5,3.78l.09.28H114v-.18a3.46,3.46,0,0,0-3.41-2.4c-4.34,0-5.26,4.89-5.45,7.84a6,6,0,0,1,5.17-3c3.42,0,5.91,2.77,5.91,6.55s-2.49,6.55-6,6.55Zm.09-11.53a4.81,4.81,0,0,0-4.71,5.07c0,3,1.85,5,4.62,5s4.43-2,4.43-5.17c0-2.86-1.85-4.89-4.34-4.89Z"/><path id="Shape-5" data-name="Shape" class="cls-1" d="M124.66,57.38c-4.06,0-6.83-3.87-6.83-9.69S120.6,38,124.66,38s6.83,3.88,6.83,9.69-2.77,9.69-6.83,9.69Zm0-17.81c-3.14,0-5.26,3.32-5.26,8.21S121.52,56,124.66,56s5.26-3.32,5.26-8.22-2.21-8.21-5.26-8.21Z"/><path id="Shape-6" data-name="Shape" class="cls-1" d="M134.81,44.18a3,3,0,0,1-3-3A2.89,2.89,0,0,1,132.6,39a3,3,0,0,1,2.12-.93,3,3,0,0,1,2.22.93,2.93,2.93,0,0,1,.83,2.12,2.88,2.88,0,0,1-3,3Zm0-5.16a2.12,2.12,0,1,0,2.13,2.12A2.07,2.07,0,0,0,134.81,39Z"/><path id="Shape-7" data-name="Shape" class="cls-1" d="M98.81,47.32a4.46,4.46,0,0,0,2.77-4.24c0-3-2.21-5-5.44-5s-5.36,1.85-5.54,4.8v.19h1.57v-.19c.09-2,1.66-3.32,4-3.32S100,41,100,43c0,2.22-1.57,3.6-4.15,3.7h-.19v1.47h.19c1.66.1,4.52.74,4.52,3.88,0,1.94-1.57,3.88-4.43,3.88-2.31,0-4-1.2-4.43-3H90a4.35,4.35,0,0,0,1.29,2.68A7,7,0,0,0,96,57.38c3.51,0,6-2.21,6-5.44a4.4,4.4,0,0,0-3.14-4.62Z"/><path id="Shape-8" data-name="Shape" class="cls-1" d="M35,49.17v7.57H37v-8.4c0-3.51-2.59-4.43-4.9-4.43,0,0-3.13-.09-4.24,2.49h0V44.28H25.89V56.83h1.94v-7c0-2.5,1.29-3.88,3.41-4.07,1-.18,3.79-.37,3.79,3.42Z"/><path id="Shape-9" data-name="Shape" class="cls-1" d="M88.66,50.37c0-4.25-2.4-6.55-6-6.55s-6,2.86-6,7.1a6,6,0,0,0,11.35,3,2.64,2.64,0,0,0,.28-.56,1.61,1.61,0,0,0,.09-.46H86.26a3.74,3.74,0,0,1-3.69,2.4c-2.13,0-3.88-1.48-3.88-4.43h9.88l.09-.46Zm-9.79-1a3.81,3.81,0,0,1,3.88-3.69c2.22,0,3.6,1.48,3.88,3.69Z"/><path id="Shape-10" data-name="Shape" class="cls-1" d="M50.54,50.37c0-4.25-2.4-6.55-6-6.55s-6,2.86-6,7.1a6,6,0,0,0,11.35,3,4.14,4.14,0,0,0,.28-.56,1.61,1.61,0,0,0,.09-.46H48.14a3.76,3.76,0,0,1-3.7,2.4c-2.12,0-3.87-1.48-3.87-4.43h9.87l.1-.46Zm-9.88-1a3.88,3.88,0,0,1,7.75,0Z"/><path id="Shape-11" data-name="Shape" class="cls-1" d="M24.23,50.37c0-4.25-2.4-6.55-6-6.55s-6,2.86-6,7.1a5.85,5.85,0,0,0,5.91,6.19,5.81,5.81,0,0,0,5.44-3.23,3.22,3.22,0,0,0,.28-.56,1.61,1.61,0,0,0,.09-.46H21.83a3.74,3.74,0,0,1-3.69,2.4c-2.13,0-3.88-1.48-3.88-4.43h9.88v-.46Zm-9.79-1a3.81,3.81,0,0,1,3.88-3.69c2.22,0,3.6,1.48,3.88,3.69Z"/></svg>