<svg id="Layer_1" data-name="Layer 1" xmlns="http://www.w3.org/2000/svg" viewBox="0 0 150 100"><defs><style>.cls-1{fill:#292626;}.cls-2,.cls-3{fill:#fff;}.cls-3{fill-rule:evenodd;}</style></defs><polygon class="cls-1" points="25 33.33 125 33.33 125 66.67 25 66.67 25 33.33"/><polygon class="cls-2" points="36.1 53.77 40.67 53.77 40.67 51.97 46.1 51.97 46.1 49.77 40.67 49.77 40.67 49.03 46.1 49.03 46.1 46.57 36.1 46.57 36.1 53.77"/><path class="cls-3" d="M52.3,48.53h1.47c.8,0,1.2.17,1.2.64s-.24.8-1.27.8H52.3V48.53Zm-4.53,5.24H52.3V51.43h0l2.14,2.34h5.36l-3.13-3c1.4-.1,2.8-.67,2.8-2.1s-1.2-2.1-3.23-2.1h-8.5v7.17Z"/><polygon class="cls-2" points="61.2 53.77 71.37 53.77 71.37 51.87 65.77 51.87 65.77 51.2 71.37 51.2 71.37 49.53 65.77 49.53 65.77 48.83 71.37 48.83 71.37 46.57 61.2 46.57 61.2 53.77"/><polygon class="cls-2" points="73.07 53.77 77.6 53.77 77.6 46.57 73.07 46.57 73.07 53.77"/><polygon class="cls-2" points="81.8 53.77 86.37 53.77 86.37 49.4 89.03 49.4 89.03 46.57 79.13 46.57 79.13 49.4 81.8 49.4 81.8 53.77"/><path class="cls-3" d="M96.6,50.87h-2l.94-2.64h0l1,2.64Zm-7.43,2.9H93.8l.33-.94h3l.3.94h4.7l-2.9-7.2H92l-2.86,7.2Z"/><path class="cls-2" d="M113.83,50.1h-4.16v2H109c-1.13,0-2-.43-2-1.57,0-1.36,1.6-1.46,2.9-1.46a32.27,32.27,0,0,1,3.7.2V46.73a36.12,36.12,0,0,0-5.1-.36c-3.3,0-6.06.9-6.06,3.83,0,2.67,2.33,3.77,5.86,3.77a19.56,19.56,0,0,0,5.44-.64V50.1Z"/><path class="cls-2" d="M118.43,47.8a1.6,1.6,0,0,1-1.6,1.63,1.59,1.59,0,0,1-1.6-1.63,1.6,1.6,0,1,1,3.2,0Z"/><path d="M118.13,47.8a1.3,1.3,0,1,0-2.6,0,1.28,1.28,0,0,0,1.3,1.34,1.3,1.3,0,0,0,1.3-1.37Z"/><path class="cls-2" d="M117.2,47.93l.3.67h-.33l-.3-.63h-.34v.63h-.3V46.9h.64a.55.55,0,0,1,.6.53.43.43,0,0,1-.27.5Z"/><path d="M116.9,47.73c.17,0,.3-.06.3-.26a.27.27,0,0,0-.3-.27h-.33v.53Z"/></svg>