<svg id="Layer_1" data-name="Layer 1" xmlns="http://www.w3.org/2000/svg" viewBox="0 0 150 100"><defs><style>.cls-1{fill:#292626;}</style></defs><polygon class="cls-1" points="55.58 28.32 55.58 37.28 48.42 37.28 48.42 28.32 43.73 28.32 43.73 51.11 48.42 51.11 48.42 41.2 55.58 41.2 55.58 51.11 60.2 51.11 60.2 28.32 55.58 28.32"/><polygon class="cls-1" points="85.35 28.32 82.32 44.3 78.55 28.32 73.96 28.32 70.26 44.3 67.15 28.32 62.25 28.32 67.4 51.11 72.34 51.11 76.04 35.1 79.89 51.11 84.86 51.11 90.04 28.32 85.35 28.32"/><polygon class="cls-1" points="91.53 28.32 91.53 32.35 100.45 32.35 90.71 48.57 90.71 51.11 105.88 51.11 105.88 47.05 96.71 47.05 106.23 31.36 106.23 28.32 91.53 28.32"/><path class="cls-1" d="M85.88,71.6h.81V69.52a.78.78,0,0,1,.81-.84c.5,0,.71.24.71.77V71.6H89V69.38c0-.95-.49-1.37-1.2-1.37a1.22,1.22,0,0,0-1.13.63V66.46h-.81V71.6Zm-2.47.08A1.5,1.5,0,0,0,85,70.3h-.75a.78.78,0,0,1-.84.74c-.6,0-1-.39-1-1.16v-.07c0-.74.39-1.17,1-1.17a.74.74,0,0,1,.81.67H85A1.44,1.44,0,0,0,83.38,68a1.72,1.72,0,0,0-1.77,1.83v.07a1.68,1.68,0,0,0,1.8,1.77m-3.14-4.17a.48.48,0,0,0,.5-.46.45.45,0,0,0-.5-.45.47.47,0,0,0-.49.45.52.52,0,0,0,.49.46m-.38,4.09h.81V68.08h-.81ZM77,71.6h.81V69.77c0-.74.42-1,1.13-1V68a1.15,1.15,0,0,0-1.13.7V68H77ZM74,71.68A1.23,1.23,0,0,0,75.09,71v.56h.81V68.08h-.81v2.08a.79.79,0,0,1-.81.85c-.46,0-.71-.25-.71-.78V68.08h-.81v2.26c0,1,.53,1.34,1.2,1.34M75,67.48a.47.47,0,0,0,.46-.43.44.44,0,0,0-.46-.42.46.46,0,0,0-.46.42.44.44,0,0,0,.46.43m-1.34,0a.47.47,0,0,0,.46-.43.44.44,0,0,0-.46-.42.46.46,0,0,0-.46.42.44.44,0,0,0,.46.43M68.25,71.6h3.66v-.7H69.59l2.39-4v-.1H68.53v.7h2.22l-2.47,4v.1Zm-5.68,0h.81V69.52a.78.78,0,0,1,.81-.84c.49,0,.7.24.7.77V71.6h.82V69.38c0-.95-.5-1.37-1.2-1.37a1.2,1.2,0,0,0-1.13.63v-.56h-.81ZM61,67.51a.47.47,0,0,0,.49-.46A.45.45,0,0,0,61,66.6a.47.47,0,0,0-.49.45.51.51,0,0,0,.49.46m-.39,4.09h.81V68.08h-.81Z"/><path class="cls-1" d="M124.44,63.1A2,2,0,0,0,125,63V62.4a1.51,1.51,0,0,1-.39.07c-.24,0-.39-.14-.39-.46V60.18H125v-.6h-.78V58.8h-.81v.78H123v.6h.46v1.94c0,.6.32,1,1,1M120.73,63h.81V60.14h.81v-.6h-.81V59c0-.32.14-.53.46-.53a1,1,0,0,1,.35.07v-.63a1.57,1.57,0,0,0-.45-.07,1.09,1.09,0,0,0-1.2,1.2v.46h-.5v.6h.5V63Zm-2.93-.49c-.38,0-.56-.21-.56-.49s.39-.57,1-.57h.43v.35c0,.43-.39.71-.89.71m-.17.56a1.35,1.35,0,0,0,1.09-.49V63h.81V60.74c0-1-.63-1.27-1.41-1.27a1.35,1.35,0,0,0-1.52,1.16h.78a.59.59,0,0,1,.67-.56c.49,0,.64.25.64.71V61h-.43c-1,0-1.8.28-1.8,1.13s.5,1,1.17,1M112.44,63h.81V61a.79.79,0,0,1,.82-.84c.49,0,.7.24.7.77V63h.81V60.81c0-1-.49-1.37-1.2-1.37a1.22,1.22,0,0,0-1.13.63V57.88h-.81Zm-2.5.07a1.48,1.48,0,0,0,1.62-1.37h-.74a.79.79,0,0,1-.85.74c-.6,0-1-.39-1-1.16v-.08c0-.74.38-1.16,1-1.16a.75.75,0,0,1,.81.67h.78a1.45,1.45,0,0,0-1.63-1.3,1.72,1.72,0,0,0-1.76,1.83v.07a1.69,1.69,0,0,0,1.8,1.76m-3.85,0c.92,0,1.41-.42,1.41-1.12s-.49-1-1.3-1.1c-.57-.1-.74-.21-.74-.46s.21-.42.56-.42.57.14.64.46h.74c-.07-.81-.67-1.06-1.38-1.06s-1.3.35-1.3,1.06.35.92,1.27,1.06c.53.07.74.21.74.49s-.21.46-.64.46-.67-.21-.7-.57h-.78c.07.82.6,1.2,1.48,1.2m-2.68,0A2,2,0,0,0,104,63V62.4a1.51,1.51,0,0,1-.39.07c-.25,0-.39-.14-.39-.46V60.18H104v-.6h-.78V58.8h-.81v.78h-.49v.6h.45v1.94a.93.93,0,0,0,1.06,1m-4-.07h.81V61.2c0-.74.42-1,1.13-1v-.77a1.15,1.15,0,0,0-1.13.7v-.67h-.81Zm-1.59-4.09a.47.47,0,0,0,.49-.46.45.45,0,0,0-.49-.46.48.48,0,0,0-.49.46.45.45,0,0,0,.49.46M97.38,63h.81V59.51h-.81ZM91.7,63h.85l1-3.49L94.49,63h.88l1.2-4.79h-.85l-.84,3.56-1-3.56h-.74l-1,3.52-.85-3.52h-.91Zm-5.5,0H87V61.2c0-.74.42-1,1.13-1v-.77a1.15,1.15,0,0,0-1.13.7v-.67H86.2Zm-3,.07a1.19,1.19,0,0,0,1.12-.63V63h.82V59.51h-.85v2.08a.78.78,0,0,1-.81.84c-.46,0-.71-.24-.71-.77V59.51h-.81v2.25c0,1,.53,1.34,1.24,1.34m1-4.19a.47.47,0,0,0,.46-.43.44.44,0,0,0-.46-.42.46.46,0,0,0-.46.42.44.44,0,0,0,.46.43m-1.34,0a.47.47,0,0,0,.46-.43.44.44,0,0,0-.46-.42.46.46,0,0,0-.46.42.47.47,0,0,0,.46.43M79.5,63h.81V60.14h.81v-.6h-.81V59c0-.32.14-.53.46-.53a1,1,0,0,1,.35.07v-.63a1.59,1.59,0,0,0-.46-.07,1.09,1.09,0,0,0-1.2,1.2v.46H79v.6h.49V63Zm-5.36-2.11a.92.92,0,0,1,.91-.88c.5,0,.81.28.85.88Zm1,2.18c.92,0,1.51-.38,1.62-1.12h-.78c-.07.35-.31.52-.81.52s-1-.38-1-1h2.58V61.2a1.57,1.57,0,0,0-1.66-1.76,1.75,1.75,0,0,0-1.77,1.83v.07a1.64,1.64,0,0,0,1.77,1.76M71.56,63h.81V57.92h-.81Zm-3.07.07a1.21,1.21,0,0,0,1.13-.63V63h.81V59.51h-.81v2.08a.78.78,0,0,1-.81.84c-.46,0-.71-.24-.71-.77V59.51h-.81v2.25c0,1,.5,1.34,1.2,1.34M63,63h.82V61a.76.76,0,0,1,.81-.84c.49,0,.7.24.7.77V63h.81V60.81c0-1-.49-1.37-1.2-1.37a1.19,1.19,0,0,0-1.12.63V57.88H63Zm-2.46.07a1.48,1.48,0,0,0,1.62-1.37h-.74a.8.8,0,0,1-.85.74c-.6,0-1-.39-1-1.16v-.08c0-.74.39-1.16,1-1.16a.75.75,0,0,1,.81.67h.77a1.44,1.44,0,0,0-1.62-1.3,1.71,1.71,0,0,0-1.76,1.83v.07a1.67,1.67,0,0,0,1.8,1.76m-3.85,0c.92,0,1.41-.42,1.41-1.12s-.49-1-1.3-1.1c-.57-.1-.74-.21-.74-.46s.21-.42.56-.42.56.14.64.46H58c-.07-.81-.67-1.06-1.38-1.06s-1.3.35-1.3,1.06.35.92,1.26,1.06c.53.07.75.21.75.49s-.22.46-.64.46-.67-.21-.7-.57h-.78c0,.82.56,1.2,1.48,1.2M51.24,63h.81V61a.79.79,0,0,1,.82-.84c.49,0,.7.24.7.77V63h.81V60.81c0-1-.49-1.37-1.2-1.37a1.22,1.22,0,0,0-1.13.63V57.88h-.81Zm-2.5.07a1.48,1.48,0,0,0,1.62-1.37h-.74a.79.79,0,0,1-.85.74c-.6,0-1-.39-1-1.16v-.08c0-.74.38-1.16,1-1.16a.75.75,0,0,1,.81.67h.78a1.45,1.45,0,0,0-1.63-1.3,1.72,1.72,0,0,0-1.76,1.83v.07a1.71,1.71,0,0,0,1.8,1.76m-4.23,0a1.72,1.72,0,0,0,1.8-1.79v-.08a1.72,1.72,0,0,0-1.8-1.79,1.75,1.75,0,0,0-1.8,1.83v.07a1.69,1.69,0,0,0,1.8,1.76m0-.63c-.64,0-1-.46-1-1.16v-.08c0-.74.35-1.16,1-1.16s1,.46,1,1.16v0c0,.78-.35,1.2-1,1.2M37.8,63h.89V61h2.18v2h.92V58.24h-.92v2H38.72v-2h-.88V63Zm-5.29-2.11a.93.93,0,0,1,.92-.88c.49,0,.81.28.85.88Zm.92,2.18c.92,0,1.52-.38,1.62-1.12h-.77c-.07.35-.32.52-.81.52a.92.92,0,0,1-1-1h2.58V61.2a1.57,1.57,0,0,0-1.66-1.76,1.74,1.74,0,0,0-1.76,1.83v.07a1.66,1.66,0,0,0,1.76,1.76m-3.1-4.16a.47.47,0,0,0,.49-.46.45.45,0,0,0-.49-.46.48.48,0,0,0-.5.46.45.45,0,0,0,.5.46M29.94,63h.81V59.51h-.81ZM25,63h1.45a2.23,2.23,0,0,0,2.5-2.4v-.07a2.21,2.21,0,0,0-2.5-2.36H25Zm.88-.7V58.94h.53c1.13,0,1.59.64,1.59,1.66v.07a1.48,1.48,0,0,1-1.59,1.69h-.53Z"/></svg>