<svg id="Layer_1" data-name="Layer 1" xmlns="http://www.w3.org/2000/svg" viewBox="0 0 150 100"><defs><style>.cls-1{fill:#292626;}</style></defs><g id="BLKB-logo"><path class="cls-1" d="M35.69,41.23V59.28h-18V41.23h18m.64-.64H17V59.92H36.33V40.59Z"/><polygon class="cls-1" points="20.72 50.28 25.66 58.31 34.65 58.31 29.7 50.28 34.65 42.2 25.66 42.2 20.72 50.28"/><path class="cls-1" d="M39.94,40.56h2.69c1.09,0,1.84.55,1.84,1.64a1.44,1.44,0,0,1-1,1.51h0a1.34,1.34,0,0,1,1.16,1.43c0,1.51-1.23,1.85-2.26,1.85H39.94V40.56Zm1.57,2.53h.41c.48,0,1-.14,1-.68s-.48-.62-1-.62h-.48v1.3Zm0,2.6H42c.54,0,1.16-.07,1.16-.75s-.62-.75-1.16-.75h-.48Z"/><path class="cls-1" d="M48.6,46.94v-.75h0a1.45,1.45,0,0,1-1.37.89,1.5,1.5,0,0,1-1.64-1.5c0-1.44,1.44-1.64,2.19-1.64a2.61,2.61,0,0,1,.68.06c0-.68-.48-.82-1-.82a2.35,2.35,0,0,0-1.36.35v-1.1a4.82,4.82,0,0,1,1.71-.34,1.85,1.85,0,0,1,2,2v1.78A5.71,5.71,0,0,0,50,46.94Zm-1.05-1a1,1,0,0,0,.89-1.09h-.62c-.47,0-.89.21-.89.62S47.21,46,47.55,46Z"/><path class="cls-1" d="M51.06,45.64a3.93,3.93,0,0,0,1.37.35c.27,0,.61-.07.61-.41,0-.82-2.12-.21-2.12-2A1.66,1.66,0,0,1,52.77,42a4,4,0,0,1,1.51.27l-.14,1.17A2.25,2.25,0,0,0,53,43.11c-.35,0-.69.07-.69.35,0,.75,2.19.13,2.19,2,0,1.3-1,1.57-2,1.57a5.43,5.43,0,0,1-1.58-.2Z"/><path class="cls-1" d="M57,45c.06.68.54.89,1.23.89a2.28,2.28,0,0,0,1.3-.35v1.17a4.14,4.14,0,0,1-1.58.27,2.43,2.43,0,0,1-2.55-2.55A2.22,2.22,0,0,1,57.7,42c1.57,0,2.18,1.24,2.18,2.7v.27h-3L57,45Zm1.64-.89c0-.55-.28-1-.89-1s-.82.48-.82,1Z"/><path class="cls-1" d="M61.23,40.08h1.5v6.86h-1.5Z"/><path class="cls-1" d="M64,40.08h1.51v6.86H64Z"/><path class="cls-1" d="M69.8,46.94v-.75h0a1.45,1.45,0,0,1-1.37.89,1.5,1.5,0,0,1-1.64-1.5c0-1.44,1.44-1.64,2.19-1.64a2.36,2.36,0,0,1,.68.06c0-.68-.47-.82-1-.82a2.36,2.36,0,0,0-1.37.35v-1.1a4.87,4.87,0,0,1,1.71-.34,1.85,1.85,0,0,1,2,2v1.78a5.71,5.71,0,0,0,.07,1.09Zm-1-1a1,1,0,0,0,.88-1.09h-.61c-.48,0-.89.21-.89.62S68.43,46,68.78,46Z"/><path class="cls-1" d="M72.4,42.13h1.37V43h0a1.56,1.56,0,0,1,1.57-1C76.5,42.07,77,43,77,44v3h-1.5V44.57c0-.89-.28-1.23-.69-1.23-.61,0-1,.48-1,1.51v2H72.33V42.09l.07,0Z"/><path class="cls-1" d="M82.84,46.94H81.47v-.82h0a1.6,1.6,0,0,1-1.5,1c-1.3,0-2-1.16-2-2.6,0-1.16.68-2.41,1.84-2.41a1.73,1.73,0,0,1,1.51.75h0V40.08h1.5v6.86Zm-2.39-1.16c.48,0,.89-.54.89-1.23s-.34-1.23-.89-1.23-.89.55-.89,1.16C79.56,45.28,79.9,45.78,80.45,45.78Z"/><path class="cls-1" d="M84,45.64A3.93,3.93,0,0,0,85.4,46c.27,0,.61-.07.61-.41,0-.82-2.12-.21-2.12-2A1.66,1.66,0,0,1,85.74,42a4,4,0,0,1,1.5.27l-.13,1.17a2.32,2.32,0,0,0-1.17-.35c-.34,0-.68.07-.68.35,0,.75,2.19.13,2.19,2,0,1.3-1,1.57-2,1.57a5.4,5.4,0,0,1-1.57-.2Z"/><path class="cls-1" d="M91.92,43.5a1.42,1.42,0,0,0-.89-.27,1.27,1.27,0,0,0,.07,2.53,2.11,2.11,0,0,0,1-.21v1.23a3.49,3.49,0,0,1-1.23.21,2.37,2.37,0,0,1-2.55-2.46A2.43,2.43,0,0,1,90.82,42a2,2,0,0,1,1.16.28Z"/><path class="cls-1" d="M93,40.08h1.51v2.83h0A1.75,1.75,0,0,1,96,42.09c1.16,0,1.64.89,1.64,1.91v3h-1.5V44.6c0-.89-.28-1.23-.69-1.23-.61,0-1,.47-1,1.5v2H92.94V40.06H93Z"/><path class="cls-1" d="M101.72,46.94v-.75h0a1.45,1.45,0,0,1-1.37.89,1.5,1.5,0,0,1-1.64-1.5c0-1.44,1.44-1.64,2.19-1.64a2.36,2.36,0,0,1,.68.06c0-.68-.48-.82-1-.82a2.35,2.35,0,0,0-1.36.35v-1.1a4.82,4.82,0,0,1,1.71-.34,1.85,1.85,0,0,1,2,2v1.78a5.71,5.71,0,0,0,.07,1.09Zm-1-1a1,1,0,0,0,.89-1.09H101c-.48,0-.89.21-.89.62S100.35,46,100.69,46Z"/><path class="cls-1" d="M104.68,43.3h-.89V42.13h.89v-.27c0-1.44.62-1.91,1.78-1.91.34,0,.55.06.75.06l-.06,1.17a1,1,0,0,0-.48-.07c-.41,0-.55.27-.55.75v.27h1V43.3h-1v3.64h-1.51V43.3Z"/><path class="cls-1" d="M108,42.13h.89v-1l1.44-.48V42.2h1v1.16h-1v1.78c0,.55.13.89.61.89.14,0,.27-.07.48-.07l.07,1.1a3.87,3.87,0,0,1-1,.07c-1.3,0-1.64-.69-1.64-1.78V43.3h-.82V42.13Z"/><path class="cls-1" d="M112.44,40.08h1.5v6.86h-1.5Z"/><path class="cls-1" d="M116.9,41.38h-1.5V40.15h1.5v1.23Zm-1.5.75h1.5v4.81h-1.5Z"/><path class="cls-1" d="M121.71,43.5a1.38,1.38,0,0,0-.89-.27,1.27,1.27,0,0,0,.07,2.53,2.12,2.12,0,0,0,1-.21v1.23a3.49,3.49,0,0,1-1.23.21,2.36,2.36,0,0,1-2.55-2.46A2.43,2.43,0,0,1,120.62,42a2,2,0,0,1,1.16.28Z"/><path class="cls-1" d="M123,40.08h1.5v2.83h0a1.75,1.75,0,0,1,1.44-.82c1.16,0,1.64.89,1.64,1.91v3H126V44.6c0-.89-.27-1.23-.68-1.23-.62,0-1,.47-1,1.5v2h-1.5V40.06H123Z"/><path class="cls-1" d="M130.08,45c.07.68.55.89,1.23.89a2.28,2.28,0,0,0,1.3-.35v1.17A4.09,4.09,0,0,1,131,47a2.42,2.42,0,0,1-2.55-2.55A2.22,2.22,0,0,1,130.81,42c1.57,0,2.19,1.24,2.19,2.7v.27h-3l0,.07Zm1.67-.89c0-.55-.21-1-.83-1s-.82.48-.82,1Z"/><path class="cls-1" d="M39.94,50.36h2.25v3.86h0l2.56-3.86h2.73l-3.14,4.4,3.37,5.09H44.88l-2.69-4.33h0v4.33H39.94Z"/><path class="cls-1" d="M52.84,59.85c0-.41-.07-.75-.07-1.1h0a2.11,2.11,0,0,1-2,1.3,2.19,2.19,0,0,1-2.42-2.18c0-2.12,2.12-2.42,3.28-2.42.35,0,.76.07,1,.07,0-1-.68-1.23-1.44-1.23a3.71,3.71,0,0,0-2.05.54l-.07-1.64a6.06,6.06,0,0,1,2.56-.48,2.69,2.69,0,0,1,3,3v2.6a7,7,0,0,0,.13,1.64h-2v-.07Zm-1.51-1.51A1.53,1.53,0,0,0,52.7,56.7c-.27,0-.61-.07-1-.07-.76,0-1.3.28-1.3,1A.79.79,0,0,0,51.33,58.34Z"/><path class="cls-1" d="M56.62,52.78h2v1.3h0a2.31,2.31,0,0,1,2.32-1.44c1.71,0,2.42,1.37,2.42,2.83v4.4H61.16V56.45c0-1.3-.41-1.78-1-1.78-.89,0-1.37.69-1.37,2.19v3H56.58v-7l0,0Z"/><path class="cls-1" d="M64.72,52.78H66V51.21l2.12-.75v2.32h1.5v1.71H68.16v2.6c0,.82.21,1.3.89,1.3.2,0,.48-.07.68-.07l.07,1.57a7.51,7.51,0,0,1-1.37.14c-2,0-2.46-1-2.46-2.69V54.47H64.74l0-1.69Z"/><path class="cls-1" d="M71,56.27A3.72,3.72,0,1,1,74.75,60,3.51,3.51,0,0,1,71,56.27Zm5.16,0c0-1-.42-2-1.44-2s-1.44,1-1.44,2,.41,2,1.44,2S76.19,57.3,76.19,56.27Z"/><path class="cls-1" d="M79.83,52.78h2v1.3h0a2.31,2.31,0,0,1,2.32-1.44c1.71,0,2.42,1.37,2.42,2.83v4.4H84.37V56.45c0-1.3-.41-1.78-1-1.78-.89,0-1.36.69-1.36,2.19v3H79.79v-7l0,0Z"/><path class="cls-1" d="M92.74,59.85c0-.41-.07-.75-.07-1.1h0a2.12,2.12,0,0,1-2,1.3,2.18,2.18,0,0,1-2.42-2.18c0-2.12,2.12-2.42,3.28-2.42.34,0,.75.07,1,.07,0-1-.69-1.23-1.44-1.23a3.69,3.69,0,0,0-2,.54L89,53.19a6,6,0,0,1,2.55-.48,2.69,2.69,0,0,1,3,3v2.6a6.54,6.54,0,0,0,.14,1.64h-2v-.07Zm-1.51-1.51A1.53,1.53,0,0,0,92.6,56.7c-.27,0-.61-.07-1-.07-.75,0-1.3.28-1.3,1C90.34,58.07,90.69,58.34,91.23,58.34Z"/><path class="cls-1" d="M96.66,49.61h2.19V59.78H96.66Z"/><path class="cls-1" d="M100.9,49.61h2.19v4h0a2.57,2.57,0,0,1,2.19-1.09c1.77,0,2.73,1.84,2.73,3.58,0,2-1,3.85-2.87,3.85A2.28,2.28,0,0,1,103,58.5h0v1.23h-2V49.61Zm3.58,4.88c-.82,0-1.37.75-1.37,1.85s.62,1.78,1.37,1.78,1.3-.76,1.3-1.92C105.78,55.24,105.3,54.49,104.48,54.49Z"/><path class="cls-1" d="M113.83,59.85c0-.41-.07-.75-.07-1.1h0a2.12,2.12,0,0,1-2,1.3,2.18,2.18,0,0,1-2.41-2.18c0-2.12,2.12-2.42,3.28-2.42.34,0,.75.07,1,.07,0-1-.69-1.23-1.44-1.23a3.69,3.69,0,0,0-2,.54l-.07-1.64a6,6,0,0,1,2.55-.48,2.69,2.69,0,0,1,3,3v2.6a6.54,6.54,0,0,0,.14,1.64h-2v-.07Zm-1.53-1.51a1.53,1.53,0,0,0,1.37-1.64c-.28,0-.62-.07-1-.07-.75,0-1.3.28-1.3,1C111.34,58.07,111.75,58.34,112.3,58.34Z"/><path class="cls-1" d="M117.59,52.78h2v1.3h0a2.32,2.32,0,0,1,2.33-1.44c1.71,0,2.41,1.37,2.41,2.83v4.4h-2.19V56.45c0-1.3-.41-1.78-1-1.78-.89,0-1.37.69-1.37,2.19v3h-2.19v-7l0,0Z"/><path class="cls-1" d="M126.18,49.61h2.19v6.11h0l1.85-3h2.41L130.45,56l2.41,3.85h-2.69l-1.78-3.51h0v3.51h-2.18l0-10.24Z"/></g></svg>