<svg id="Layer_1" data-name="Layer 1" xmlns="http://www.w3.org/2000/svg" viewBox="0 0 150 100"><defs><style>.cls-1{fill:#292626;}</style></defs><polygon class="cls-1" points="77.73 63.01 89.59 39.6 84.36 36.99 72.42 60.4 77.73 63.01"/><polygon class="cls-1" points="75.89 39.6 70.65 36.99 58.71 60.4 64.03 63.01 75.89 39.6"/><path class="cls-1" d="M99.22,53.7h3.62c5.31,0,8.16-3.78,8.16-7.7s-2.85-7.7-8.16-7.7H93.37v24H99.3V53.7Zm0-10.17h3.31A2.41,2.41,0,0,1,105.07,46a2.44,2.44,0,0,1-2.54,2.46H99.22Z"/><polygon class="cls-1" points="55.02 56.93 44.93 56.93 44.93 38.22 39 38.22 39 62.24 55.02 62.24 55.02 56.93"/></svg>