<svg id="Layer_1" data-name="Layer 1" xmlns="http://www.w3.org/2000/svg" viewBox="0 0 150 100"><defs><style>.cls-1{fill:#292626;}</style></defs><path class="cls-1" d="M79.94,59.18c1.83.08,3.67.23,5.18-1.28a2.55,2.55,0,0,0,2.29,1.32c1,0,1.72-.24,2.11-1.18a6.23,6.23,0,0,1-.71-1.31,13.57,13.57,0,0,1-.38-2.38c-.14-2.19.21-4.39-.37-6.57a4.41,4.41,0,0,0-2.69-3.17,9.4,9.4,0,0,0-7.77.33c.22,1,.44,1.9.66,2.82a19,19,0,0,1,3.06-.66,5.55,5.55,0,0,1,2.36.49,1.21,1.21,0,0,1,.73,1.68c-.87,0-1.81-.05-2.75,0a6.18,6.18,0,0,0-4.8,2.51c-.86,1.13-.73,2.37-.7,3.61A4.12,4.12,0,0,0,79.94,59.18Zm.87-6.45A10.54,10.54,0,0,1,83.48,52c.7-.11,1.09.25,1.08,1s.23,1.5-.32,2.17a2.13,2.13,0,0,1-2,1c-.92-.07-1.65.15-2.13-.59A1.82,1.82,0,0,1,80.81,52.73Z"/><path class="cls-1" d="M51.61,58.89a7.73,7.73,0,0,0,3.37.28,5.92,5.92,0,0,0,5.61-3.41,7.19,7.19,0,0,0,.74-3.91v-2a5.8,5.8,0,0,0-2.14-4.24A7,7,0,0,0,53,44a6.18,6.18,0,0,0-4.3,2.73,8.59,8.59,0,0,0-1.23,7.13A7,7,0,0,0,51.61,58.89Zm-.43-8.42c.25-1.37.72-2.59,2.24-3.13a3,3,0,0,1,3.4,1,5,5,0,0,1,.65,3.23,5.18,5.18,0,0,1-.69,3.23,2.92,2.92,0,0,1-4.36.61C50.94,54.06,50.84,52.3,51.18,50.47Z"/><path class="cls-1" d="M66.62,58.73a11.21,11.21,0,0,0,6.18.34c2.38-.35,2.69-1.34,1.53-3.56-.1-.19-.24-.37-.36-.56-.63.3-1.12.57-1.64.79-2.48,1.07-5.35,0-5.76-2.87a6.44,6.44,0,0,1,.09-2.52c.41-1.59,1.1-2.79,3.06-3.05a6.46,6.46,0,0,1,2.83.42c.4.12.78.3,1.21.47a7.38,7.38,0,0,0,1.33-2.75c-2.78-2-5.71-1.86-8.59-.6-2.14.94-3.19,2.83-3.75,5.09a9.91,9.91,0,0,0,0,3.84A6,6,0,0,0,66.62,58.73Z"/><path class="cls-1" d="M104.09,47.43c3.76,0,6.1-2.23,6.1-5.86s-2.29-6-5.81-6c-3.76,0-6.09,2.24-6.09,5.87S100.57,47.42,104.09,47.43Zm-2.25-8h2.53v-2l2,.08v1.76a9.26,9.26,0,0,1,1,.17,10.47,10.47,0,0,1,1.08.47v1.53l-2.12-.22-.16,1.37c0,.31-.14,1.25-.14,1.25l-1.63.08V41.39l-2.65-.14Z"/><path class="cls-1" d="M93.42,59.2a3.12,3.12,0,0,0,3-1.43c-1.6-1.16-1.87-2.81-1.85-4.64.06-4.29,0-8.57,0-12.85a7.57,7.57,0,0,0,0-1.35c-1.2.35-2.44.67-3.49,1,0,5.75,0,11.36,0,17A2.22,2.22,0,0,0,93.42,59.2Z"/><path class="cls-1" d="M41.49,58.32c.94,1.35,3.41,1,4.27.14.35-.36.48-.79,0-1.15A4,4,0,0,1,44.54,54c0-4.48,0-9,0-13.46A14.62,14.62,0,0,0,44.39,39c-.94.23-1.73.39-2.51.61A4.6,4.6,0,0,0,41,40c0,5.59,0,11.15,0,16.71A2.57,2.57,0,0,0,41.49,58.32Z"/><path class="cls-1" d="M108.76,54.14a2.17,2.17,0,0,0-2.34-.43c-.07-.77-.2-2.11-.2-2.11H104.8v1.15s0,3.53,0,5.29a9.55,9.55,0,0,0,0,1.07,15.13,15.13,0,0,0,1.54,0s0-.54,0-.94c0-.88,0-1.77,0-2.65a1.24,1.24,0,0,1,.18-.44h1.31c0,1.06,0,3.05,0,3.05v.95h1.48s0-2,.07-3.08A1.91,1.91,0,0,0,108.76,54.14Z"/><path class="cls-1" d="M102.31,57.63a1,1,0,0,1-.94-1c-.14-1.35.41-1.85,1.77-1.55a7.29,7.29,0,0,1,.79.3c0-.52.09-.94.12-1.32a2.16,2.16,0,0,0-2.15-.51c-.68.27-1.45.38-1.89,1.09a3,3,0,0,0,1,4.23,2.87,2.87,0,0,0,2.7,0c.53-.25.57-.78.11-1.3C103.31,57.63,102.81,57.66,102.31,57.63Z"/><path class="cls-1" d="M98.09,59.17a1,1,0,0,0,1-.93c0-.68-.4-.92-1.79-.92C97.21,58.73,97.4,59.15,98.09,59.17Z"/><path class="cls-1" d="M29.84,30.34a1,1,0,0,0-.53.15,8.07,8.07,0,0,0-2.82,3.23A18.81,18.81,0,0,0,25.58,36a17.93,17.93,0,0,0-.88,5.58V69.66h94.51a4.23,4.23,0,0,0,2.87-1.52l.19-.17c1.57-1.44,2.57-4.75,2.88-6.3l.15-.83V31.3a1,1,0,0,0-1-1Zm-3.31,6a16.94,16.94,0,0,1,.87-2.17,6.62,6.62,0,0,1,1.78-2.26,2.37,2.37,0,0,1,1.53-.55H124.3V59.92c-.12.35-.2.71-.25.79a5.84,5.84,0,0,1-5.87,3c-.26,0-.52,0-.78,0H26.87c-.38,0-.78-.05-1.17,0V41.59A17.13,17.13,0,0,1,26.53,36.32Z"/></svg>