<svg id="Layer_1" data-name="Layer 1" xmlns="http://www.w3.org/2000/svg" viewBox="0 0 150 100"><defs><style>.cls-1{fill:#292626;}</style></defs><polygon class="cls-1" points="32.82 51.21 28.41 40.63 22 40.63 22 59.38 26.8 59.38 26.8 48.55 31.37 59.38 33.93 59.38 38.58 48.55 38.58 59.38 43.37 59.38 43.37 40.64 37.44 40.64 32.82 51.21"/><path class="cls-1" d="M71.28,48.59H65.19V52.4h2.32v3.29a13.48,13.48,0,0,1-2.09.13C61.89,55.82,60,53.6,60,50c0-3.4,1.64-5.74,5.18-5.74a11.78,11.78,0,0,1,4.35,1L71.41,42a12.06,12.06,0,0,0-6.6-1.76c-6.15,0-9.83,4-9.83,9.7,0,6.43,3.68,9.76,10.67,9.76A34,34,0,0,0,72,59.11V49.45A.77.77,0,0,0,71.28,48.59Z"/><path class="cls-1" d="M51.15,40.62h-4.1V59.38s4.82,0,4.81,0v-18A.78.78,0,0,0,51.15,40.62Z"/><path class="cls-1" d="M86.42,50.72a4.51,4.51,0,0,0,3.33-4.66c0-4.67-3.1-5.42-6.71-5.42H76.38a.84.84,0,0,0-.73.75v18h4.72V52.65h1.94c1,0,1.29.52,1.74,1.57l2.22,5.16h5.07L89.19,54A5.69,5.69,0,0,0,86.42,50.72Zm-3.7-1.78H80.37V44.25h2.35c1.4,0,2.51.36,2.52,2.17A2.3,2.3,0,0,1,82.72,48.94Z"/><path class="cls-1" d="M121.21,47.67c-1.62-.48-2.91-1-2.91-2s1-1.65,2.78-1.65a8,8,0,0,1,4.08,1.37l2.6-3a9.6,9.6,0,0,0-6.49-2.19c-4.54,0-8,2.19-8,6.11,0,3.65,3.14,4.73,5.85,5.5,2.24.63,4,1,4,2.28s-1.54,1.57-2.75,1.57a12.09,12.09,0,0,1-5.65-1.83l-2.13,3.79a14.41,14.41,0,0,0,7.42,2c5,0,8-2.65,8.06-6.52S124.07,48.55,121.21,47.67Z"/><path class="cls-1" d="M101.73,40.27c-6.13,0-9.38,4.32-9.38,9.7s3.25,9.76,9.38,9.76c5.74,0,9-4.34,9-9.76S107.47,40.27,101.73,40.27Zm0,15.5c-2.52,0-4.31-1.8-4.31-5.78s1.79-5.74,4.31-5.74c2.17,0,4,1.8,4,5.74S103.9,55.77,101.73,55.77Z"/></svg>