<svg id="Layer_1" data-name="Layer 1" xmlns="http://www.w3.org/2000/svg" viewBox="0 0 150 100"><defs><style>.cls-1{fill:#292626;}</style></defs><path class="cls-1" d="M4.64,45.42a4.66,4.66,0,0,1,4.63,5,4.66,4.66,0,0,1-4.63,5,4.68,4.68,0,0,1-4.64-5A4.67,4.67,0,0,1,4.64,45.42Zm0,7.69c1.15,0,1.75-1,1.75-2.7s-.6-2.7-1.75-2.7-1.74,1-1.74,2.7S3.47,53.11,4.64,53.11Z"/><path class="cls-1" d="M14,55.92v2.77H11.2v-13h2.31l.19,1h.08a4.16,4.16,0,0,1,2.69-1.18c2.31,0,3.72,1.9,3.72,4.83,0,3.26-2,5.15-4,5.15a3.2,3.2,0,0,1-2.26-1Zm1.5-2.83c1,0,1.78-.85,1.78-2.79,0-1.71-.52-2.58-1.65-2.58a2.19,2.19,0,0,0-1.63.87v3.89A2.18,2.18,0,0,0,15.53,53.09Z"/><path class="cls-1" d="M26.12,45.42c2.7,0,4.05,2,4.05,4.56a6.34,6.34,0,0,1-.11,1.2H24.37a2.31,2.31,0,0,0,2.48,2.07,3.86,3.86,0,0,0,2-.63l.94,1.71a6.11,6.11,0,0,1-3.37,1.07,4.64,4.64,0,0,1-4.82-5A4.65,4.65,0,0,1,26.12,45.42Zm1.65,4c0-1.1-.45-1.87-1.6-1.87-.88,0-1.65.6-1.83,1.87Z"/><path class="cls-1" d="M32.12,45.64h2.3l.19,1.21h.08a4.36,4.36,0,0,1,3.05-1.45c2.07,0,2.95,1.46,2.95,3.85v5.91H37.86V49.62c0-1.38-.36-1.8-1.18-1.8a2.4,2.4,0,0,0-1.75.92v6.44H32.1l0-9.54Z"/><path class="cls-1" d="M46.55,45.42a3.05,3.05,0,0,1,2.34,1L48.78,45V41.72h2.83V55.16H49.3l-.19-.94H49a3.73,3.73,0,0,1-2.52,1.18c-2.36,0-3.89-1.89-3.89-5S44.53,45.42,46.55,45.42Zm.66,7.67a1.8,1.8,0,0,0,1.56-.86V48.34a2.29,2.29,0,0,0-1.57-.62c-.9,0-1.71.85-1.71,2.66S46.13,53.09,47.21,53.09Z"/><path class="cls-1" d="M59.09,49a1.33,1.33,0,0,0-1.49-1.38,5.08,5.08,0,0,0-2.53.87l-1-1.87a7.94,7.94,0,0,1,4.06-1.24c2.43,0,3.78,1.38,3.78,4.3v5.44h-2.3l-.21-1h-.06a4.18,4.18,0,0,1-2.78,1.21,2.74,2.74,0,0,1-2.82-2.87C53.74,50.52,55.32,49.42,59.09,49ZM57.52,53.2a2.13,2.13,0,0,0,1.57-.8V50.74c-2,.26-2.67.84-2.67,1.57S56.85,53.2,57.52,53.2Z"/><path class="cls-1" d="M64.71,47.85H63.4V45.76l1.46-.11.33-2.52h2.34v2.52h2.28v2.22H67.53v3.81c0,1.07.49,1.52,1.23,1.52a2.47,2.47,0,0,0,.89-.19l.44,2.06a7,7,0,0,1-2.12.34c-2.35,0-3.28-1.47-3.28-3.68V47.85Z"/><path class="cls-1" d="M76.44,49A1.32,1.32,0,0,0,75,47.66a5.05,5.05,0,0,0-2.52.87l-1-1.87a8,8,0,0,1,4.07-1.24c2.43,0,3.78,1.38,3.78,4.3v5.44H77l-.2-1h-.07a4.18,4.18,0,0,1-2.77,1.21,2.74,2.74,0,0,1-2.83-2.87C71.09,50.52,72.69,49.42,76.44,49ZM74.87,53.2a2.09,2.09,0,0,0,1.57-.8V50.74c-2,.26-2.66.84-2.66,1.57S74.2,53.2,74.87,53.2Z"/><path class="cls-1" d="M83.32,51.84a1.78,1.78,0,1,1-1.71,1.78A1.71,1.71,0,0,1,83.32,51.84Z"/><path class="cls-1" d="M87.87,52.31a4,4,0,0,0,2.44,1c.85,0,1.21-.31,1.21-.8s-1-.93-1.93-1.3c-1.14-.44-2.51-1.23-2.51-2.79,0-1.76,1.45-3,3.64-3a5.51,5.51,0,0,1,3.36,1.21l-1.27,1.7a3.44,3.44,0,0,0-2-.8c-.72,0-1.07.26-1.07.75s.88.85,1.87,1.21c1.21.44,2.57,1.11,2.57,2.85s-1.36,3.08-3.9,3.08a6.1,6.1,0,0,1-3.64-1.32Z"/><path class="cls-1" d="M95.15,45.64H98l.92,4.41c.16.94.27,1.86.42,2.82h.08c.18-1,.33-1.91.55-2.82l1-4.41h2.44l1.06,4.41c.24.94.41,1.86.6,2.82h.08c.17-1,.26-1.88.44-2.82l.89-4.41h2.61l-2.3,9.51h-3.29l-.86-3.8c-.19-.88-.35-1.76-.52-2.78h-.08c-.17,1-.31,1.9-.49,2.78l-.84,3.8H97.5Z"/><path class="cls-1" d="M110.59,42.77a1.64,1.64,0,1,1,1.63,1.47A1.49,1.49,0,0,1,110.59,42.77Zm.23,2.87h2.83v9.51h-2.83Z"/><path class="cls-1" d="M116.53,52.31a4.07,4.07,0,0,0,2.45,1c.85,0,1.21-.31,1.21-.8s-1-.93-1.93-1.3c-1.15-.44-2.51-1.23-2.51-2.79,0-1.76,1.44-3,3.64-3a5.54,5.54,0,0,1,3.36,1.21l-1.28,1.7a3.41,3.41,0,0,0-2-.8c-.73,0-1.07.26-1.07.75s.88.85,1.87,1.21c1.2.44,2.57,1.11,2.57,2.85s-1.37,3.08-3.91,3.08a6.12,6.12,0,0,1-3.64-1.32Z"/><path class="cls-1" d="M125,52.31a4,4,0,0,0,2.44,1c.85,0,1.21-.31,1.21-.8s-1-.93-1.93-1.3c-1.14-.44-2.51-1.23-2.51-2.79,0-1.76,1.45-3,3.64-3a5.51,5.51,0,0,1,3.36,1.21L130,48.34a3.44,3.44,0,0,0-2-.8c-.72,0-1.07.26-1.07.75s.88.85,1.87,1.21c1.21.44,2.57,1.11,2.57,2.85s-1.36,3.08-3.9,3.08a6,6,0,0,1-3.64-1.32Z"/><path class="cls-1" d="M139.39,45.31a5,5,0,0,1,7,7l1.89,1.88a7.66,7.66,0,0,0-6-12.47,7.53,7.53,0,0,0-4.8,1.69Z"/><path class="cls-1" d="M145.18,53.56a5,5,0,0,1-7-7l-1.89-1.88a7.67,7.67,0,0,0,10.77,10.76Z"/></svg>