<svg id="Layer_1" data-name="Layer 1" xmlns="http://www.w3.org/2000/svg" viewBox="0 0 150 100"><defs><style>.cls-1{fill:#292626;}</style></defs><path class="cls-1" d="M85.13,69H81.81V52.73h3.32Zm-2.63-.69h1.94V53.42H82.5Zm-3.12.72h-8V52.73H74.6V66h4.78v3Zm-7.32-.72h6.63V66.72H73.91V53.42H72.06ZM68.2,69H65v-6.6h-5.7V69H56V52.73h3.24v6.71H65V52.73H68.2Zm-2.54-.69h1.85V53.42H65.66v6.71H58.58V53.42H56.72V68.33h1.86v-6.6h7.08ZM49.94,51.52H40.88V48.8h9.06v2.72Zm-8.45-.6h7.84V49.4H41.49Zm3.93,18.67a8.54,8.54,0,1,1,8.34-8.54,8.28,8.28,0,0,1-8.34,8.54Zm0-16.41A7.85,7.85,0,1,0,53.07,61a7.61,7.61,0,0,0-7.65-7.84ZM37.58,69.05H33.49L28.24,62.8v6.25H25V52.74h3.24V59l5.25-6.27h4.09L30.73,60.9Zm-3.77-.69H36.1L29.83,60.9l6.27-7.47H33.81l-6.26,7.48Zm-8.12,0h1.86V53.43H25.69Zm19.73-1.07c-3.7,0-5.69-3.22-5.69-6.24s2-6.23,5.69-6.23S51.1,58.06,51.07,61s-2,6.29-5.65,6.26Zm0-11.78c-3.25,0-5,2.85-5,5.54s1.73,5.52,5,5.52,5-2.86,5-5.55-1.72-5.5-5-5.51Zm44.59-8A8.28,8.28,0,0,1,81.64,39a8.35,8.35,0,1,1,16.69,0A8.23,8.23,0,0,1,90,47.48ZM90,31.1A7.61,7.61,0,0,0,82.33,39a7.67,7.67,0,1,0,15.33,0A7.62,7.62,0,0,0,90,31.1Zm-37.33,16H49.25L45.52,36.44,41.77,47.1H38.34l6-16.31h2.28Zm-2.94-.69h1.95L46.17,31.48H44.85L39.33,46.41h2l4.24-12.06Zm-12.9.69H33.12l-2.85-4.68h-2V47.1H25V30.79h5.93a5.84,5.84,0,0,1,2.72,11Zm-3.33-.69h2.11l-3-4.9.37-.16a5.15,5.15,0,0,0-2.07-9.87H25.69V46.41h1.87V41.73h3.1Zm83.14.69h-5.37V30.79h5.37a8.16,8.16,0,1,1,0,16.31ZM112,46.41h4.68a7.47,7.47,0,1,0,0-14.93H112Zm-3.14.7h-8V30.79h3.24V44.12h4.78v3Zm-7.33-.7h6.64v-1.6h-4.78V31.48H101.5Zm-30,.69H68.3V30.79h5.91a5.82,5.82,0,0,1,0,11.63H71.52V47.1ZM69,46.41h1.86V41.73h3.36a5.13,5.13,0,0,0,0-10.25H69Zm-11.57.69H54.19V30.79h5.9a5.82,5.82,0,0,1,0,11.63H57.4V47.1Zm-2.54-.69h1.85V41.73h3.36a5.13,5.13,0,0,0,0-10.25H54.88ZM90,45.18c-3.69,0-5.69-3.21-5.69-6.23s2-6.24,5.69-6.24S95.66,36,95.66,39s-2,6.23-5.67,6.23Zm0-11.8c-3.25,0-5,2.86-5,5.55s1.73,5.51,5,5.54,5-2.86,5-5.54-1.74-5.55-5-5.53Zm26.64,11.43h-2.82V33.09h2.82a5.86,5.86,0,0,1,0,11.72Zm-2.14-.69h2.14a5.17,5.17,0,0,0,0-10.34h-2.14Zm-40.3-4H70.85v-7h3.36a3.31,3.31,0,0,1,3.24,3.52,3.29,3.29,0,0,1-3.26,3.51Zm-2.67-.69h2.67a2.63,2.63,0,0,0,2.57-2.83,2.62,2.62,0,0,0-2.57-2.82H71.54Zm-11.45.69H56.73v-7h3.36a3.31,3.31,0,0,1,3.24,3.51,3.25,3.25,0,0,1-3.22,3.52Zm-2.67-.69h2.67a2.63,2.63,0,0,0,2.58-2.83,2.63,2.63,0,0,0-2.58-2.82H57.42Zm-26.49.69H27.56v-7h3.37a3.52,3.52,0,0,1,0,7Zm-2.68-.69h2.68a2.83,2.83,0,0,0,0-5.65H28.25Z"/></svg>