<svg id="Layer_1" data-name="Layer 1" xmlns="http://www.w3.org/2000/svg" viewBox="0 0 150 100"><defs><style>.cls-1{fill:#292626;}</style></defs><g id="Page-1"><g id="Ricardo_Logo_RGB" data-name="Ricardo Logo RGB"><path id="Path" class="cls-1" d="M43.67,60.41V47.7a1.6,1.6,0,0,1,.61-1.42,2.74,2.74,0,0,1,1.55-.39,3.48,3.48,0,0,1,2,.61V60.41Z"/><path id="Shape" class="cls-1" d="M69.74,53.84h0a2.07,2.07,0,0,0-1.17,1.88c0,1.21,1,2.19,3.15,2.25h.15a16.39,16.39,0,0,0,2.8-.17V55.24A2.35,2.35,0,0,0,73.42,54,4.53,4.53,0,0,0,69.74,53.84Zm4.48-8.16c2.58.73,4.52,2.42,4.52,6.1v8.7s-2.81.19-5.61.22h-.25c-2.73,0-5-.19-6.56-1.43a4.38,4.38,0,0,1-1.69-3.47v0a4.17,4.17,0,0,1,2.13-3.82c2.54-1.57,6.55-1.17,7.9,0v-.86c0-1-.68-2.67-3.88-2.67a6.11,6.11,0,0,0-1.41.17,10.39,10.39,0,0,0-2.59.92l0,0a2.39,2.39,0,0,1-.67-1.62,1.77,1.77,0,0,1,.47-1.17C67.88,45.44,71,44.76,74.22,45.68Z"/><path id="Shape-2" data-name="Shape" class="cls-1" d="M99.74,48.81a3.08,3.08,0,0,0-2.44,1l0,0a4.15,4.15,0,0,0-1,3.11,4.88,4.88,0,0,0,1.19,3.24,4.19,4.19,0,0,0,3.21,1.17h.12a10.68,10.68,0,0,0,2-.15h0V50.81A3.07,3.07,0,0,0,99.74,48.81Zm5.18-8.42a3.63,3.63,0,0,1,2,.58h0l0,19.49-.53,0c-1,.07-3.2.2-5,.2-3,0-5.36-.58-6.89-2.05a7.53,7.53,0,0,1-2.31-5.92v-.08a7.74,7.74,0,0,1,2.09-5.24l.06-.06a6.47,6.47,0,0,1,4.64-2,5,5,0,0,1,3.78,1.49l0,.06V42.21a1.61,1.61,0,0,1,.61-1.43,2.76,2.76,0,0,1,1.53-.39Z"/><path id="Path-2" data-name="Path" class="cls-1" d="M88,45.42a6,6,0,0,1,2.31.39l0,0a2,2,0,0,1,1.27,1.55v0a2.18,2.18,0,0,1-.7,1.89,6.36,6.36,0,0,0-3.71-.37h-.07a3.3,3.3,0,0,0-1.37.48v11H81.62V46.92l0,0A12.58,12.58,0,0,1,88,45.42Z"/><path id="Shape-3" data-name="Shape" class="cls-1" d="M117.07,48.63a3.51,3.51,0,0,0-1.59.35,3.59,3.59,0,0,0-1.17.91,3.84,3.84,0,0,0-.72,1.39,6.36,6.36,0,0,0-.24,1.74,5.71,5.71,0,0,0,.24,1.74,3.88,3.88,0,0,0,.72,1.38,3.17,3.17,0,0,0,1.12.9l0,0a3.51,3.51,0,0,0,1.59.35,3.6,3.6,0,0,0,1.55-.33l0,0a3.62,3.62,0,0,0,1.17-.92,3.88,3.88,0,0,0,.72-1.38,6.43,6.43,0,0,0,0-3.48,3.84,3.84,0,0,0-.72-1.39,3.25,3.25,0,0,0-1.17-.91A3.49,3.49,0,0,0,117.07,48.63Zm0-3.3a8.7,8.7,0,0,1,3.27.6,7.81,7.81,0,0,1,2.49,1.64A6.7,6.7,0,0,1,124.46,50a8.35,8.35,0,0,1,.54,3,8.62,8.62,0,0,1-.54,3,7.3,7.3,0,0,1-4.1,4.09,9.24,9.24,0,0,1-6.55,0,8.22,8.22,0,0,1-2.44-1.59l-.05,0a6.7,6.7,0,0,1-1.61-2.45,8.19,8.19,0,0,1-.54-3,8.57,8.57,0,0,1,.54-3,7.3,7.3,0,0,1,1.61-2.45A7.43,7.43,0,0,1,113.74,46l.07,0a8.56,8.56,0,0,1,3.28-.6Z"/><path id="Path-3" data-name="Path" class="cls-1" d="M54.83,45.93a10.08,10.08,0,0,1,5.92-.16h0a4.17,4.17,0,0,1,2.28,1.5,2.24,2.24,0,0,1-.32,2.6,3.49,3.49,0,0,1-.35.32h0a7,7,0,0,0-2.79-1.26,6.39,6.39,0,0,0-1.31-.12,4,4,0,0,0-2.89,1.1,4.26,4.26,0,0,0-1.11,3.14,4.53,4.53,0,0,0,1.1,3.14l0,0a3.63,3.63,0,0,0,2.72,1.08h.08a5.41,5.41,0,0,0,2.37-.54,4.3,4.3,0,0,0,1.08-.71h0l1.89,2.76,0,0a6.8,6.8,0,0,1-2,1.17l-.38.13a10,10,0,0,1-3.31.55h-.06a7.93,7.93,0,0,1-5.37-2,7.62,7.62,0,0,1-1.65-2.4,9,9,0,0,1,0-6.47,7.2,7.2,0,0,1,1.65-2.4A7,7,0,0,1,54.83,45.93Z"/><circle id="Oval" class="cls-1" cx="45.74" cy="41.86" r="2.6"/><path id="Shape-4" data-name="Shape" class="cls-1" d="M41.2,60.25c0-1.76-.22-5.68-3.4-8a5.46,5.46,0,0,0,2.82-5.22c-.23-4.53-4.1-6.47-9.1-6.23C27.12,41,25,42.36,25,42.49v17.9h4.16l0-7.3h.11a16.51,16.51,0,0,1,3.06.2,5.44,5.44,0,0,1,2.27.84c2.26,1.62,2.42,4.47,2.43,6.18v.1H41.2Zm-6.54-10.4c-1.39.56-4.34.28-5.37.15h-.12V44.74l0,0a7.77,7.77,0,0,1,3.36-.6c3.73,0,4,2.48,4,3A2.71,2.71,0,0,1,34.66,49.85Z"/></g></g></svg>