<svg id="Layer_1" data-name="Layer 1" xmlns="http://www.w3.org/2000/svg" viewBox="0 0 150 100"><defs><style>.cls-1{fill:#292626;}</style></defs><path class="cls-1" d="M62.88,46.81a3.87,3.87,0,1,1,3.86-3.87,3.86,3.86,0,0,1-3.86,3.87m49.47,10.72a2,2,0,1,1,2-2,2,2,0,0,1-2,2m-26.86,0a2,2,0,1,1,2-2,2,2,0,0,1-2,2M42.25,51.2c-.42.14-.3,0-.25-.24s.27-1.07.47-1.81,0-.71-.43-.71H36.71c-.42,0-.47.07-.67.59s-1.27,4.39-1.73,5.43A3.81,3.81,0,0,1,33.23,56c-.94.72-2,.31-2-1.57,0-5.15,4.8-11.72,11.7-11.67,3.21.13,4.34,1.63,4.53,2.66.74,3.78-4.66,5.64-5.2,5.81M125,60.27c0-.26-.42-3.68-.5-4.34s-.56-.37-.66-.31-1,.66-1.69,1.1c-.56.33-1.37.05-1-1,.13-.41,1.88-6,2.06-6.58s-.18-.66-.49-.66h-4.58c-.31,0-.44.29-.5.41s-.2.49-.37.78-.26.12-.37,0a6.8,6.8,0,0,0-4.55-1.85c-4.78,0-7,4.09-7.33,6.88,0,.26-.1.28-.21.34-.35.2-2.35,1.32-2.88,1.6s-1.08-.19-.85-.91c0-.07,4.5-14.4,4.66-14.91s-.13-.53-.36-.53h-5.13c-.37,0-.44.12-.53.39s-2.8,9.11-2.8,9.11-.68.58-3.6.58c-3.18,0-4.21-2.55-8.17-2.55-6.51,0-7.14,7.15-7.14,7.15s-2.3,1.28-3.14,1.72a4.15,4.15,0,0,1-1.8.68,2,2,0,0,1-.33-3.91,1.7,1.7,0,0,1,1.29.33c.4.26.52,0,.6-.07.25-.32,2.86-3.33,3.09-3.62a.49.49,0,0,0-.12-.73,6.32,6.32,0,0,0-4.29-1.58,7.37,7.37,0,0,0-7.58,6.61.66.66,0,0,1-.37.48c-.27.19-2,1.23-2.41,1.46-1,.54-1.18-.34-1.09-.61,0,0,1.67-5.52,2-6.49s.25-.75-.54-.77H58.8c-.8,0-.7-.08-.86.46,0,.08-1,3.49-1.31,4.08a1.86,1.86,0,0,1-.78,1l-1.18.77c-3.76,2.48-4,2-5.45-1-.19-.3-.22-.44.12-.61a8.75,8.75,0,0,0,4.72-7.92c0-5.21-4.47-8.48-11.44-8.48A17.87,17.87,0,0,0,25,54.89c.33,10.51,8.78,10,12.93,4.4C41.15,55,41,52.8,41.51,52.8c.22,0,.58.84,1.13,1.91,1,1.91,2.38,4.69,3.07,5.7a5.57,5.57,0,0,0,4.47,2.52c2.1,0,3.53-1.11,5.51-2.4.22-.14.5-.3.79.06A5.25,5.25,0,0,0,61,62.94c2.28,0,5.14-2,5.7-2.36.4-.24.42-.24.78.08a8.39,8.39,0,0,0,5.32,2.27c2.49,0,6.28-2,6.55-2.21s.46-.28.73,0a6.41,6.41,0,0,0,5.19,2.21,7.61,7.61,0,0,0,7.78-7.12c0-.29,0-.36.47-.36h1.09c.19,0,.5,0,.43.36a7.37,7.37,0,0,0-.29,3.26,5,5,0,0,0,5.35,3.86c2.17-.09,5.85-2.37,6.07-2.48a.54.54,0,0,1,.72.13,8,8,0,0,0,5,2.37,7.3,7.3,0,0,0,4.28-1.27c.21-.14.33-.19.54,0a4.36,4.36,0,0,0,3.21,1.27c1.89,0,4.51-1.8,4.85-2s.23-.35.19-.65"/></svg>