<svg id="Layer_1" data-name="Layer 1" xmlns="http://www.w3.org/2000/svg" viewBox="0 0 150 100"><defs><style>.cls-1{fill:#292626;}</style></defs><polygon class="cls-1" points="22 46.34 26.06 46.34 26.06 57.1 30.52 57.1 30.52 46.34 34.58 46.34 34.58 42.62 22 42.62 22 46.34"/><polygon class="cls-1" points="35.26 57.15 47.48 57.15 47.48 53.43 39.73 53.43 39.73 51.61 47.48 51.61 47.48 48.15 39.73 48.15 39.73 46.34 47.48 46.34 47.48 42.62 35.26 42.62 35.26 57.15"/><path class="cls-1" d="M55.55,42.62H48.23V57.1h6.45c5.06,0,7.41-2.82,7.41-7.26C62.08,46.19,60.37,42.62,55.55,42.62ZM54.44,53.41H52.71v-7h1.41a3.19,3.19,0,0,1,3.5,3.44C57.62,51.16,57.22,53.41,54.44,53.41Z"/><polygon class="cls-1" points="71.65 42.6 68.38 42.6 67.12 44.76 65.91 42.6 62.64 42.6 65.63 46.95 62.53 51.52 65.8 51.52 67.12 49.26 68.49 51.52 71.76 51.52 68.66 46.95 71.65 42.6"/><polygon class="cls-1" points="85.28 44.39 85.28 42.7 74.53 42.7 74.53 44.41 82.76 44.41 73.89 55.5 73.89 57.12 85.28 57.12 85.28 55.41 76.35 55.41 85.28 44.39"/><path class="cls-1" d="M93.56,51.77a6.7,6.7,0,0,1-.36,2.43,2.45,2.45,0,0,1-2.46,1.65A1.74,1.74,0,0,1,89,54.91a3,3,0,0,1-.25-1.33v-7H87v7.16a4.44,4.44,0,0,0,.43,2.15,3.08,3.08,0,0,0,3,1.5,3.65,3.65,0,0,0,3.25-1.84l0,1.55h1.66V46.59H93.58Z"/><path class="cls-1" d="M102.79,46.36a2.54,2.54,0,0,0-1.86.76,3.51,3.51,0,0,0-1,1.28V46.58H98.23V57.11H100V51.05a3.11,3.11,0,0,1,.73-2,2.52,2.52,0,0,1,2.05-.85h.3a1.57,1.57,0,0,1,.3,0V46.4l-.41,0Z"/><rect class="cls-1" x="104.88" y="42.68" width="1.79" height="2.01"/><rect class="cls-1" x="104.88" y="46.66" width="1.79" height="10.46"/><path class="cls-1" d="M113.42,47.85a2.31,2.31,0,0,1,1.8.64,3.18,3.18,0,0,1,.72,1.63h1.71a4.09,4.09,0,0,0-1.35-3,4.72,4.72,0,0,0-2.88-.88A4.35,4.35,0,0,0,110,47.81a6.35,6.35,0,0,0-1.35,4.32,5.84,5.84,0,0,0,1.22,3.75,4,4,0,0,0,3.28,1.52,4.65,4.65,0,0,0,3-1,4.56,4.56,0,0,0,1.48-3.06h-1.71a3.88,3.88,0,0,1-.9,1.84,2.59,2.59,0,0,1-3.84-.43,4.82,4.82,0,0,1-.66-2.65A6.28,6.28,0,0,1,111,49.5,2.48,2.48,0,0,1,113.42,47.85Z"/><path class="cls-1" d="M127.54,48a3.14,3.14,0,0,0-3.1-1.6,3.88,3.88,0,0,0-2.13.55A5,5,0,0,0,121.17,48V42.64h-1.76V57.12h1.76V51.55a3.66,3.66,0,0,1,.9-2.86,3.1,3.1,0,0,1,2-.76,1.88,1.88,0,0,1,1.82.85,3.73,3.73,0,0,1,.29,1.71v6.63H128V50.39A5.34,5.34,0,0,0,127.54,48Z"/></svg>