<svg id="Layer_1" data-name="Layer 1" xmlns="http://www.w3.org/2000/svg" viewBox="0 0 150 100"><defs><style>.cls-1{fill:#292626;}</style></defs><path class="cls-1" d="M63.14,56.05a.27.27,0,0,0-.16-.21.35.35,0,0,0-.14,0l-.12,0c-.21.08-.5.17-.87.28a4.79,4.79,0,0,1-1.21.14,1.45,1.45,0,0,1-1.25-.47A3.19,3.19,0,0,1,59,54V49.57h3.81a.32.32,0,0,0,.31-.31V47a.33.33,0,0,0-.31-.31H59V43.52a.32.32,0,0,0-.11-.24.32.32,0,0,0-.2-.07h-.05L56,43.67a.3.3,0,0,0-.26.3V54a9.66,9.66,0,0,0,.21,2.11,4,4,0,0,0,.74,1.65,3.31,3.31,0,0,0,1.44,1.06,5.85,5.85,0,0,0,2.19.35,6.85,6.85,0,0,0,1.85-.22,9,9,0,0,0,1.25-.42.33.33,0,0,0,.19-.35l-.44-2.12Zm12-9.35H72.42a.33.33,0,0,0-.31.31v9.11l-.52.06c-.35,0-.69,0-1,0A1.81,1.81,0,0,1,69,55.56a4.64,4.64,0,0,1-.48-2.47V47a.32.32,0,0,0-.31-.31H65.48a.33.33,0,0,0-.31.31v6.49a9.23,9.23,0,0,0,.25,2.23,4.49,4.49,0,0,0,.87,1.81,4,4,0,0,0,1.63,1.2,6.12,6.12,0,0,0,2.45.42A16.78,16.78,0,0,0,73.14,59c.83-.14,1.52-.28,2-.42a.3.3,0,0,0,.24-.3V47a.32.32,0,0,0-.32-.31Zm9.77,9.35a.28.28,0,0,0-.15-.21.4.4,0,0,0-.15,0l-.11,0c-.21.08-.51.17-.87.28a4.85,4.85,0,0,1-1.21.14,1.46,1.46,0,0,1-1.26-.47,3.19,3.19,0,0,1-.38-1.8V49.57h3.81a.31.31,0,0,0,.31-.31V47a.32.32,0,0,0-.31-.31H80.74V43.52a.32.32,0,0,0-.11-.24.31.31,0,0,0-.2-.07h-.05l-2.68.45a.31.31,0,0,0-.26.3V54a9.66,9.66,0,0,0,.21,2.11,4.3,4.3,0,0,0,.74,1.65,3.34,3.34,0,0,0,1.45,1.06,5.76,5.76,0,0,0,2.18.35,6.8,6.8,0,0,0,1.85-.22,9.7,9.7,0,0,0,1.26-.42.34.34,0,0,0,.18-.35l-.44-2.12Zm9.36,0a.27.27,0,0,0-.16-.21.35.35,0,0,0-.14,0l-.12,0c-.21.08-.5.17-.87.28a4.79,4.79,0,0,1-1.21.14,1.45,1.45,0,0,1-1.25-.47A3.19,3.19,0,0,1,90.1,54V49.57h3.81a.32.32,0,0,0,.31-.31V47a.33.33,0,0,0-.31-.31H90.1V43.52a.32.32,0,0,0-.11-.24.32.32,0,0,0-.2-.07h-.05l-2.68.45a.3.3,0,0,0-.26.3V54A9.66,9.66,0,0,0,87,56.1a4,4,0,0,0,.74,1.65,3.31,3.31,0,0,0,1.44,1.06,5.85,5.85,0,0,0,2.19.35,6.85,6.85,0,0,0,1.85-.22,9,9,0,0,0,1.25-.42.33.33,0,0,0,.19-.35l-.44-2.12Zm3.61-14.39a2,2,0,0,0-1.39.52,1.89,1.89,0,0,0-.6,1.46,1.84,1.84,0,0,0,.6,1.43,2.08,2.08,0,0,0,2.75,0,1.9,1.9,0,0,0,.59-1.43,1.93,1.93,0,0,0-.58-1.46,2,2,0,0,0-1.37-.52Zm1.35,5H96.51a.32.32,0,0,0-.31.31V58.59a.32.32,0,0,0,.31.31h2.68a.33.33,0,0,0,.31-.31V47A.31.31,0,0,0,99.19,46.7ZM103.41,55a2.06,2.06,0,0,0-1.49.59,2.15,2.15,0,0,0,0,3,2.21,2.21,0,0,0,3,0,2,2,0,0,0,.63-1.5,2,2,0,0,0-.62-1.49,2,2,0,0,0-1.47-.59Zm12.47,1.05a.3.3,0,0,0-.16-.22.43.43,0,0,0-.14,0l-.12,0a5.28,5.28,0,0,1-1.07.3,6.76,6.76,0,0,1-1.27.13,2.78,2.78,0,0,1-2.32-.87,4,4,0,0,1-.7-2.5,3.91,3.91,0,0,1,.73-2.53,2.56,2.56,0,0,1,2.11-.86,4.74,4.74,0,0,1,1.16.13,7.27,7.27,0,0,1,1,.3.25.25,0,0,0,.12,0,.32.32,0,0,0,.14,0,.29.29,0,0,0,.16-.2l.57-2.15a.31.31,0,0,0-.19-.37,8.24,8.24,0,0,0-3.17-.6,5.87,5.87,0,0,0-2.46.48,5.56,5.56,0,0,0-1.89,1.34,6,6,0,0,0-1.18,2,7.4,7.4,0,0,0-.4,2.47,8.31,8.31,0,0,0,.36,2.48,5.52,5.52,0,0,0,1.12,2,5,5,0,0,0,1.89,1.32,6.8,6.8,0,0,0,2.66.47A9.74,9.74,0,0,0,114.7,59a5.75,5.75,0,0,0,1.39-.41.33.33,0,0,0,.17-.33l-.38-2.17ZM127.78,50a4.44,4.44,0,0,0-.83-1.75,3.89,3.89,0,0,0-1.57-1.16,6.93,6.93,0,0,0-3.58-.3l-.65.15V41.72a.34.34,0,0,0-.11-.24.26.26,0,0,0-.19-.07h-.06l-2.63.43a.31.31,0,0,0-.26.3V58.6a.3.3,0,0,0,.3.3h2.64a.31.31,0,0,0,.3-.3V49.78l.55-.12a5.11,5.11,0,0,1,1-.11,2.93,2.93,0,0,1,1,.16,1.31,1.31,0,0,1,.59.47,2.52,2.52,0,0,1,.34.93,8.92,8.92,0,0,1,.12,1.5v6a.3.3,0,0,0,.3.3h2.63a.31.31,0,0,0,.31-.3v-6.4a8.34,8.34,0,0,0-.22-2.19Z"/><path class="cls-1" d="M46.68,40.61,31,36.4a3.85,3.85,0,0,0-4.68,2.7l-4.2,15.67a3.79,3.79,0,0,0,2.68,4.63l4.6,1.24a5.17,5.17,0,0,1-.75-1.78,12.37,12.37,0,0,1-.25-2.57V44.13a.38.38,0,0,1,.32-.38L32,43.21H32a.36.36,0,0,1,.24.09.42.42,0,0,1,.14.29v3.86H37a.38.38,0,0,1,.37.38v2.71a.37.37,0,0,1-.37.37H32.42v5.33a3.77,3.77,0,0,0,.46,2.2,1.74,1.74,0,0,0,1.51.56,5.82,5.82,0,0,0,1.47-.17c.44-.13.79-.24,1-.34l.15,0a.39.39,0,0,1,.18,0,.36.36,0,0,1,.19.26l.55,2.6a.4.4,0,0,1-.22.42,13.36,13.36,0,0,1-1.53.52l-.3.07,4.59,1.23a3.78,3.78,0,0,0,4.63-2.67l4.2-15.7A3.77,3.77,0,0,0,46.68,40.61Z"/></svg>