<svg id="Layer_1" data-name="Layer 1" xmlns="http://www.w3.org/2000/svg" viewBox="0 0 150 100"><defs><style>.cls-1{fill:#292626;}</style></defs><g id="Logo_WeCollect_transparent_weiss" data-name="Logo WeCollect transparent weiss"><path class="cls-1" d="M103.81,19c-1.42,0-58.18,1.18-58.19,1.2s.77,47,.79,47,1.39.11,4.06.19c2.22.07,4.1.15,4.18.17l.16,0-2.48,6.68C51,78,49.85,81,49.86,81s3.36-2.91,7.44-6.49S64.75,68,64.79,68s8.4.25,18.6.6,18.57.63,18.6.6.56-11,1.18-24.47,1.16-24.72,1.18-25.07l0-.63ZM52.88,56.92a1.61,1.61,0,0,0,.84.81,2.66,2.66,0,0,0,1.48,0l.41-.14c.06,0,.19.18.47.74a8.88,8.88,0,0,1,.38.82,3.61,3.61,0,0,1-1.19.54,5.34,5.34,0,0,1-2.32,0,2.84,2.84,0,0,1-1.17-.6,3.52,3.52,0,0,1-1-1.39,4.82,4.82,0,0,1-.06-2.74,3.34,3.34,0,0,1,2.84-2.35,5.36,5.36,0,0,1,1.68.1,3,3,0,0,1,1.25.57,7.08,7.08,0,0,1-.38.81c-.4.82-.35.79-.87.58a2.61,2.61,0,0,0-1.41,0,1.6,1.6,0,0,0-.91.84A2.21,2.21,0,0,0,52.88,56.92Zm10.24,2.42a3.61,3.61,0,0,1-1.94.42,3.45,3.45,0,0,1-2.72-1,3.39,3.39,0,0,1-.9-1.58,5.66,5.66,0,0,1,0-2.09,3.38,3.38,0,0,1,2.9-2.53,3.8,3.8,0,0,1,4,1.76,3.62,3.62,0,0,1,.42,1.61A3.41,3.41,0,0,1,63.12,59.34Zm7.51,0,0,.24h-2l-2,0,0-3.4c0-1.86,0-3.42,0-3.46s.27-.07,1.09-.06l1.06,0,0,2.55v2.57h1a6.09,6.09,0,0,1,1,0A4.42,4.42,0,0,1,70.63,59.39Zm5.43.16c0,.07-.44.08-2,.07l-2,0,0-3.4c0-1.86,0-3.42,0-3.46s.29-.07,1.08-.07h1v5.15h1c.75,0,1,0,1.07.07A7.1,7.1,0,0,1,76.06,59.55ZM73.89,47.18c-.15.28-.21.28-3.12.28s-2.9,0-3.1-.24c0,0-.66-2.3-1.4-5s-1.34-5-1.36-5,0-.29-1.38,5c-.72,2.67-1.32,4.89-1.34,4.93a.63.63,0,0,1-.22.2c-.17.11-.27.11-2.95.11H56.25l-.18-.16c-.17-.14-.26-.43-2.87-9.44-1.47-5.11-2.68-9.33-2.68-9.36a.26.26,0,0,1,.09-.17c.09-.1.27-.11,3.55-.11s3.46,0,3.64.12a.66.66,0,0,1,.24.23c0,.08.41,1.94.85,4.15.93,4.7.85,4.34.91,4.19s.54-1.94,1.13-4.16,1.12-4.1,1.17-4.18a1,1,0,0,1,.26-.23c.17-.11.3-.12,2.55-.12,2.49,0,2.53,0,2.76.26,0,.07.57,1.88,1.21,4.27S70,36.93,70,37s.42-1.85.87-4.17l.84-4.22.19-.17.2-.17h7l.08.13c.08.13-.07.67-2.6,9.43C75.15,42.89,73.91,47.12,73.89,47.18Zm8.77,12.45H77.45v-7H80l2.52,0v1.75l-1.45,0H79.6v.79h1.16c1,0,1.17,0,1.19.09a6.41,6.41,0,0,1-.15,1.53c0,.06-.34.08-1.13.08H79.6v.85H81c.79,0,1.47,0,1.53,0s.09.17.09.91Zm-.22-12.17-.15-.17-.14-.18V37.76c0-7.83,0-9.37.09-9.44s.63-.1,7-.1c6.79,0,6.87,0,7,.12s.11.18.11,2.37,0,2.26-.12,2.38-.18.11-4,.11H88.2v2.27h3.18c2.07,0,3.2,0,3.28.05s.14.2-.09,2.41c-.2,1.83-.2,1.86-.34,2l-.15.13H88.2v2.43h4.07c4,0,4.07,0,4.22.12l.14.11V45c0,2.22,0,2.24-.12,2.37l-.12.13Zm3.78,9.44a1.69,1.69,0,0,0,.9.85,2.85,2.85,0,0,0,1.42,0l.41-.14c.07,0,.17.12.46.7a6,6,0,0,1,.38.83c0,.11-.57.39-1.12.55a3.41,3.41,0,0,1-1.23.12,3,3,0,0,1-1.25-.15,3.36,3.36,0,0,1-1.42-.9,3.61,3.61,0,0,1-.8-1.46A6.08,6.08,0,0,1,84,55a3.38,3.38,0,0,1,2.87-2.49,5.73,5.73,0,0,1,1.79.12c.52.13,1.15.43,1.15.54A7.29,7.29,0,0,1,89,54.76a2,2,0,0,1-.34-.12,2.54,2.54,0,0,0-1.49-.08,1.59,1.59,0,0,0-.9.81A2,2,0,0,0,86.22,56.9Zm10.43-2.47a4.53,4.53,0,0,1-.87.06l-.82,0v5.12H93.87l-1.06,0V57l0-2.56h-.92c-.8,0-.94,0-1-.09s0-.41,0-.82,0-.76,0-.81.35-.09,3-.09a17.16,17.16,0,0,1,3,.07,9.31,9.31,0,0,1-.18,1.69Z"/><path class="cls-1" d="M61.62,54.59a1.91,1.91,0,0,0-.92,0,1.71,1.71,0,0,0-.87.94,1.59,1.59,0,0,0,1.31,2.21,1.37,1.37,0,0,0,1-.33A1.73,1.73,0,0,0,61.62,54.59Z"/></g></svg>